<svg xmlns="http://www.w3.org/2000/svg" x="0px" y="0px"
width="64" height="64"
viewBox="0 0 172 172"
style=" fill:#000000;"><defs><linearGradient x1="72.06263" y1="62.04094" x2="72.06263" y2="108.36806" gradientUnits="userSpaceOnUse" id="color-1_MGQ5rqZxhc4F_gr1"><stop offset="0" stop-color="#ffe9e7"></stop><stop offset="1" stop-color="#dd6e96"></stop></linearGradient><linearGradient x1="96.37913" y1="62.04094" x2="96.37913" y2="108.36806" gradientUnits="userSpaceOnUse" id="color-2_MGQ5rqZxhc4F_gr2"><stop offset="0" stop-color="#ffe9e7"></stop><stop offset="1" stop-color="#dd6e96"></stop></linearGradient><linearGradient x1="119.03744" y1="25.90213" x2="119.03744" y2="131.58" gradientUnits="userSpaceOnUse" id="color-3_MGQ5rqZxhc4F_gr3"><stop offset="0" stop-color="#ff8177"></stop><stop offset="1" stop-color="#b12a5b"></stop></linearGradient><linearGradient x1="52.96256" y1="25.90213" x2="52.96256" y2="131.58" gradientUnits="userSpaceOnUse" id="color-4_MGQ5rqZxhc4F_gr4"><stop offset="0" stop-color="#ff8177"></stop><stop offset="1" stop-color="#b12a5b"></stop></linearGradient></defs><g fill="none" fill-rule="nonzero" stroke="none" stroke-width="1" stroke-linecap="butt" stroke-linejoin="miter" stroke-miterlimit="10" stroke-dasharray="" stroke-dashoffset="0" font-family="none" font-weight="none" font-size="none" text-anchor="none" style="mix-blend-mode: normal"><path d="M0,172v-172h172v172z" fill="none"></path><g id="original-icon"><path d="M72.68344,75.60206c-8.66719,1.67969 -15.21662,9.30144 -15.21662,18.46044c0,10.38988 8.42263,18.8125 18.8125,18.8125c3.62544,0 7.00094,-1.04275 9.87387,-2.82187l0.50525,-15.42087l-15.00969,-5.14656z" fill="url(#color-1_MGQ5rqZxhc4F_gr1)"></path><path d="M90.63056,61.8125c-1.33569,0 -2.63644,0.14512 -3.89419,0.4085l-3.42388,18.17556l16.72431,1.92963l-2.42413,15.75681c6.92838,-2.7735 11.83038,-9.53794 11.83038,-17.458c0,-10.38988 -8.42262,-18.8125 -18.8125,-18.8125z" fill="url(#color-2_MGQ5rqZxhc4F_gr2)"></path><g><path d="M147.8125,32.25h-59.22981l-6.32637,44.93769c-0.21769,1.53994 0.24456,3.09869 1.26581,4.27581c1.02125,1.17713 2.49938,1.849 4.05544,1.849h11.47831l-5.375,40.3125h54.13162c4.44512,0 8.0625,-3.61738 8.0625,-8.0625v-75.25c0,-4.44512 -3.61737,-8.0625 -8.0625,-8.0625zM87.57756,77.9375l4.16294,-29.5625h34.79506c1.13681,6.74294 6.4715,12.07762 13.21444,13.21444v32.69612c-6.74294,1.13681 -12.07762,6.4715 -13.21444,13.21444h-25.28131l3.12825,-23.47531c0.20425,-1.53725 -0.26337,-3.08525 -1.28463,-4.25163c-1.01856,-1.16638 -2.49131,-1.83556 -4.04469,-1.83556zM150.5,115.5625c0,1.4835 -1.204,2.6875 -2.6875,2.6875h-47.99069l0.71756,-5.375h31.14812v-2.6875c0,-5.92863 4.82137,-10.75 10.75,-10.75h2.6875v-43h-2.6875c-5.92863,0 -10.75,-4.82138 -10.75,-10.75v-2.6875h-39.18913l0.75787,-5.375h54.55625c1.4835,0 2.6875,1.204 2.6875,2.6875z" fill="url(#color-3_MGQ5rqZxhc4F_gr3)"></path><path d="M84.42244,88.6875h-11.47831l5.375,-40.3125h-54.13162c-4.44513,0 -8.0625,3.61738 -8.0625,8.0625v75.25c0,4.44512 3.61737,8.0625 8.0625,8.0625h59.22981l6.32637,-44.93769c0.21769,-1.53994 -0.24456,-3.09869 -1.26581,-4.27581c-1.02125,-1.17713 -2.49938,-1.849 -4.05544,-1.849zM24.1875,134.375c-1.4835,0 -2.6875,-1.204 -2.6875,-2.6875v-75.25c0,-1.4835 1.204,-2.6875 2.6875,-2.6875h47.99069l-0.71756,5.375h-31.14812v2.6875c0,5.92862 -4.82138,10.75 -10.75,10.75h-2.6875v43h2.6875c5.92862,0 10.75,4.82137 10.75,10.75v2.6875h39.18913l-0.75787,5.375zM80.2595,123.625h-34.79506c-1.13681,-6.74294 -6.4715,-12.07762 -13.21444,-13.21444v-32.69612c6.74294,-1.13681 12.07762,-6.4715 13.21444,-13.21444h25.28131l-3.12825,23.47531c-0.20425,1.53725 0.26337,3.08525 1.28462,4.25163c1.01856,1.16637 2.49131,1.83556 4.04469,1.83556h11.47831z" fill="url(#color-4_MGQ5rqZxhc4F_gr4)"></path></g></g><g fill="#cccccc"><path d="M99.195,68.94v3.7h-10.97v30.42h-4.48v-30.42h-10.94v-3.7z"></path></g></g></svg>
